<svg xmlns="http://www.w3.org/2000/svg" viewBox="0 0 32 32" fill="none">
  <rect width="32" height="32" rx="6" fill="#2563eb"/>
  <path d="M16 8C13.2 8 11 10.2 11 13V15H10C9.4 15 9 15.4 9 16V23C9 23.6 9.4 24 10 24H22C22.6 24 23 23.6 23 23V16C23 15.4 22.6 15 22 15H21V13C21 10.2 18.8 8 16 8ZM13 13C13 11.3 14.3 10 16 10C17.7 10 19 11.3 19 13V15H13V13ZM17 19.7V21C17 21.6 16.6 22 16 22C15.4 22 15 21.6 15 21V19.7C14.4 19.4 14 18.7 14 18C14 17.1 14.7 16.3 15.6 16.1C16.5 15.9 17.4 16.4 17.8 17.2C18.1 17.9 17.9 18.8 17.3 19.3C17.2 19.5 17 19.6 17 19.7Z" fill="white"/>
</svg>
